<svg width="36" height="36" viewBox="0 0 36 36" fill="none" xmlns="http://www.w3.org/2000/svg">
<rect width="36" height="36" rx="8" fill="#F8E8EE"/>
<path d="M11 25.1115C11 22.6984 12.6973 20.643 15.004 20.2627L15.2118 20.2284C17.0589 19.9239 18.9411 19.9239 20.7882 20.2284L20.996 20.2627C23.3027 20.643 25 22.6984 25 25.1115C25 26.1545 24.1815 27 23.1719 27H12.8281C11.8185 27 11 26.1545 11 25.1115Z" stroke="#1F1F1F" stroke-width="1.5"/>
<path d="M22.0827 12.9375C22.0827 15.1121 20.2545 16.875 17.9993 16.875C15.7442 16.875 13.916 15.1121 13.916 12.9375C13.916 10.7629 15.7442 9 17.9993 9C20.2545 9 22.0827 10.7629 22.0827 12.9375Z" stroke="#F4518D" stroke-width="1.5"/>
</svg>
