<svg width="16" height="18" viewBox="0 0 16 18" fill="none" xmlns="http://www.w3.org/2000/svg">
<path d="M14.4739 8.70444C13.8652 7.99357 13.5886 7.37753 13.5886 6.33095V5.9751C13.5886 4.61127 13.2747 3.73254 12.5922 2.85382C11.5404 1.48915 9.76966 0.666656 8.0362 0.666656H7.96249C6.26548 0.666656 4.55024 1.45138 3.48018 2.76066C2.76046 3.65701 2.41012 4.5735 2.41012 5.9751V6.33095C2.41012 7.37753 2.15172 7.99357 1.52476 8.70444C1.06344 9.22815 0.916016 9.90125 0.916016 10.6297C0.916016 11.3591 1.15537 12.0498 1.63574 12.6113C2.2627 13.2844 3.14806 13.7141 4.05248 13.7888C5.36189 13.9382 6.6713 13.9944 7.99976 13.9944C9.3274 13.9944 10.6368 13.9004 11.9471 13.7888C12.8506 13.7141 13.736 13.2844 14.363 12.6113C14.8425 12.0498 15.0827 11.3591 15.0827 10.6297C15.0827 9.90125 14.9353 9.22815 14.4739 8.70444Z" fill="#F4518D"/>
<path opacity="0.4" d="M9.67348 15.0236C9.25688 14.9347 6.7184 14.9347 6.3018 15.0236C5.94567 15.1059 5.56055 15.2972 5.56055 15.7169C5.58125 16.1172 5.81564 16.4706 6.1403 16.6946L6.13947 16.6955C6.55938 17.0228 7.05217 17.2309 7.56815 17.3056C7.84312 17.3434 8.12305 17.3417 8.40796 17.3056C8.92311 17.2309 9.4159 17.0228 9.83581 16.6955L9.83498 16.6946C10.1596 16.4706 10.394 16.1172 10.4147 15.7169C10.4147 15.2972 10.0296 15.1059 9.67348 15.0236Z" fill="#F4518D"/>
</svg>
