<?xml version="1.0" standalone="no"?>
<!DOCTYPE svg PUBLIC "-//W3C//DTD SVG 20010904//EN"
 "http://www.w3.org/TR/2001/REC-SVG-20010904/DTD/svg10.dtd">
<svg version="1.0" xmlns="http://www.w3.org/2000/svg"
 width="172.000000pt" height="167.000000pt" viewBox="0 0 172.000000 167.000000"
 preserveAspectRatio="xMidYMid meet">

<g transform="translate(0.000000,167.000000) scale(0.100000,-0.100000)"
fill="#000000" stroke="none">
<path d="M0 835 l0 -835 860 0 860 0 0 147 c0 82 -4 153 -8 159 -4 6 -15 13
-24 17 -10 3 -20 18 -24 32 -4 15 -19 40 -35 57 -15 17 -38 53 -51 80 -12 26
-26 48 -30 48 -5 0 -8 7 -8 15 0 8 -13 34 -30 56 -29 41 -30 41 -38 18 -9 -23
-9 -23 -26 9 -17 32 -10 42 12 20 17 -17 15 4 -3 28 -8 11 -15 14 -15 7 0 -19
-17 -16 -39 6 -27 27 -61 44 -61 31 0 -5 -11 -10 -25 -10 -18 0 -25 5 -25 19
0 11 -10 27 -21 35 -15 10 -19 20 -15 33 6 14 9 15 15 4 6 -9 11 -10 15 -2 4
6 5 11 2 11 -3 0 -1 12 4 28 l10 27 -20 -25 c-15 -20 -20 -21 -20 -8 0 9 5 20
10 23 6 3 10 11 10 16 0 6 -5 7 -10 4 -7 -4 -10 4 -7 22 2 16 -4 41 -15 58
-10 16 -18 38 -18 48 0 10 -4 15 -10 12 -6 -4 -10 12 -10 41 0 42 2 45 17 33
15 -13 15 -12 5 8 -7 12 -12 41 -11 65 l1 43 19 -40 c22 -47 26 -20 4 32 -19
45 -20 114 -2 107 18 -6 47 -58 47 -82 0 -29 40 -76 53 -63 11 11 6 27 -39
113 -18 34 -18 53 1 68 13 11 14 10 10 -2 -3 -8 8 -33 25 -56 16 -23 30 -48
30 -56 0 -8 11 -38 25 -68 14 -29 25 -66 25 -82 0 -16 7 -34 15 -40 16 -12 65
-139 65 -169 0 -21 28 -67 52 -85 10 -7 18 -24 18 -37 0 -13 4 -26 9 -29 5 -3
12 -18 16 -33 3 -16 29 -74 56 -130 27 -56 49 -107 49 -112 0 -5 5 -13 10 -16
7 -4 10 203 10 614 l0 621 -860 0 -860 0 0 -835z m900 669 c7 -13 16 -21 20
-19 4 2 6 -6 6 -18 -1 -12 0 -26 3 -32 6 -11 7 -15 10 -60 3 -30 3 -30 11 -5
l8 25 1 -27 c1 -15 9 -31 19 -37 23 -13 3 -34 -35 -34 -52 0 -188 16 -210 24
-25 9 -30 28 -11 47 7 7 9 12 6 12 -4 0 -1 15 7 34 8 18 11 36 8 40 -4 3 2 13
13 21 10 8 15 15 11 15 -19 0 23 29 54 38 44 11 64 6 79 -24z m-332 -168 c7
-18 12 -41 12 -51 0 -15 -4 -14 -25 9 -15 16 -25 39 -25 56 0 39 22 31 38 -14z
m-19 -63 c15 -39 40 -163 39 -198 0 -17 11 -75 25 -130 37 -149 40 -175 21
-210 -28 -52 -33 -90 -17 -147 10 -35 15 -98 15 -188 -1 -74 3 -150 8 -169 5
-19 8 -37 5 -39 -4 -4 -123 14 -152 23 -9 3 -10 11 -3 29 5 14 5 28 1 31 -5 3
-5 21 -1 40 4 19 6 49 4 67 -12 122 -12 250 0 280 18 43 40 375 37 545 -1 29
-6 55 -11 58 -15 9 -12 35 4 35 7 0 19 -12 25 -27z m196 -3 c16 -7 13 -9 -17
-9 -20 -1 -40 4 -43 9 -7 12 32 12 60 0z m220 -122 c13 -165 15 -153 -28 -156
-40 -3 -59 17 -38 42 6 7 8 16 4 19 -13 14 -40 6 -74 -22 -20 -17 -42 -29 -50
-28 -38 6 -102 79 -118 134 -12 41 -5 47 30 22 47 -34 82 -42 128 -29 30 8 45
18 52 37 8 22 12 23 25 12 14 -11 18 -10 30 6 8 10 14 27 14 37 0 10 4 18 9
18 4 0 11 -42 16 -92z m90 43 c3 -5 1 -12 -5 -16 -5 -3 -10 1 -10 9 0 18 6 21
15 7z m-235 -11 c0 -5 -7 -10 -16 -10 -8 0 -12 5 -9 10 3 6 10 10 16 10 5 0 9
-4 9 -10z m65 -210 c3 -5 14 -10 25 -10 24 0 33 -26 15 -44 -11 -11 -12 -16
-2 -20 6 -3 -10 -4 -38 -3 -57 2 -68 20 -41 62 17 27 31 31 41 15z m95 -51 c0
-5 -4 -9 -10 -9 -5 0 -10 7 -10 16 0 8 5 12 10 9 6 -3 10 -10 10 -16z m160
-99 c0 -5 9 -10 19 -10 34 0 51 -12 50 -34 0 -11 -3 -15 -6 -8 -2 6 -15 12
-27 12 -12 0 -29 9 -39 20 -20 23 -21 30 -7 30 6 0 10 -4 10 -10z m-225 -59
c10 -17 -12 -21 -25 -6 -10 12 -10 15 3 15 9 0 18 -4 22 -9z m-805 -386 c-7
-9 -15 -13 -17 -11 -7 7 7 26 19 26 6 0 6 -6 -2 -15z m1199 -131 c2 -2 -10 -4
-27 -4 -18 0 -32 4 -32 9 0 9 49 5 59 -5z m-796 -143 c-3 -12 -11 -17 -23 -14
-23 6 -15 33 10 33 13 0 17 -6 13 -19z"/>
<path d="M922 1045 c-1 -13 3 -27 8 -30 6 -3 10 5 10 19 0 32 -15 42 -18 11z"/>
<path d="M1270 1113 c0 -6 9 -22 20 -36 24 -31 28 -56 5 -37 -12 10 -15 10
-15 -1 1 -21 23 -46 37 -42 6 2 14 -6 18 -19 4 -13 14 -31 22 -40 9 -10 14
-29 11 -48 -6 -42 16 -39 30 6 8 28 8 36 -4 41 -8 3 -14 12 -14 20 0 9 -6 13
-15 9 -9 -3 -15 0 -15 9 0 8 5 15 10 15 6 0 10 8 9 18 0 10 -3 12 -6 5 -2 -7
-9 -13 -14 -13 -4 0 -6 7 -3 15 6 15 -22 62 -34 56 -4 -2 -12 6 -18 18 -14 27
-24 37 -24 24z"/>
<path d="M1246 1067 c3 -10 9 -15 12 -12 3 3 0 11 -7 18 -10 9 -11 8 -5 -6z"/>
</g>
</svg>
