<svg width="20" height="22" viewBox="0 0 20 22" fill="none" xmlns="http://www.w3.org/2000/svg">
<path d="M18.9941 11.0029C18.7289 11.0029 18.4746 11.1084 18.287 11.2963C18.0995 11.4842 17.9941 11.739 17.9941 12.0047V18.0157C17.9941 18.2814 17.8888 18.5362 17.7012 18.7241C17.5137 18.912 17.2594 19.0175 16.9941 19.0175H2.99414C2.72892 19.0175 2.47457 18.912 2.28703 18.7241C2.0995 18.5362 1.99414 18.2814 1.99414 18.0157V3.99006C1.99414 3.72436 2.0995 3.46954 2.28703 3.28166C2.47457 3.09378 2.72892 2.98823 2.99414 2.98823H8.99414C9.25936 2.98823 9.51371 2.88268 9.70125 2.6948C9.88878 2.50692 9.99414 2.2521 9.99414 1.9864C9.99414 1.7207 9.88878 1.46588 9.70125 1.278C9.51371 1.09012 9.25936 0.984569 8.99414 0.984569H2.99414C2.19849 0.984569 1.43543 1.30122 0.87282 1.86486C0.310211 2.4285 -0.00585937 3.19296 -0.00585938 3.99006V18.0157C-0.00585937 18.8128 0.310211 19.5773 0.87282 20.1409C1.43543 20.7045 2.19849 21.0212 2.99414 21.0212H16.9941C17.7898 21.0212 18.5529 20.7045 19.1155 20.1409C19.6781 19.5773 19.9941 18.8128 19.9941 18.0157V12.0047C19.9941 11.739 19.8888 11.4842 19.7012 11.2963C19.5137 11.1084 19.2594 11.0029 18.9941 11.0029ZM3.99414 11.7643V16.012C3.99414 16.2777 4.0995 16.5326 4.28703 16.7204C4.47457 16.9083 4.72892 17.0139 4.99414 17.0139H9.23414C9.36575 17.0146 9.49621 16.9894 9.61805 16.9395C9.73988 16.8897 9.8507 16.8162 9.94414 16.7233L16.8641 9.78065L19.7041 6.99556C19.7979 6.90242 19.8723 6.79162 19.923 6.66954C19.9738 6.54746 19.9999 6.41651 19.9999 6.28426C19.9999 6.152 19.9738 6.02106 19.923 5.89898C19.8723 5.77689 19.7979 5.66609 19.7041 5.57296L15.4641 1.2751C15.3712 1.1812 15.2606 1.10667 15.1387 1.05581C15.0169 1.00495 14.8862 0.97876 14.7541 0.97876C14.6221 0.97876 14.4914 1.00495 14.3696 1.05581C14.2477 1.10667 14.1371 1.1812 14.0441 1.2751L11.2241 4.11028L4.28414 11.053C4.19146 11.1466 4.11813 11.2576 4.06837 11.3797C4.0186 11.5017 3.99338 11.6324 3.99414 11.7643ZM14.7541 3.39898L17.5841 6.23417L16.1641 7.65677L13.3341 4.82158L14.7541 3.39898ZM5.99414 12.175L11.9241 6.23417L14.7541 9.06935L8.82414 15.0102H5.99414V12.175Z" fill="#F4518D"/>
</svg>
