<svg width="36" height="36" viewBox="0 0 36 36" fill="none" xmlns="http://www.w3.org/2000/svg">
<rect width="36" height="36" rx="8" fill="#F9F5F6"/>
<path fill-rule="evenodd" clip-rule="evenodd" d="M15.592 21.2068C19.281 21.2068 22.434 21.7658 22.434 23.9988C22.434 26.2318 19.302 26.8068 15.592 26.8068C11.902 26.8068 8.75 26.2528 8.75 24.0188C8.75 21.7848 11.881 21.2068 15.592 21.2068Z" stroke="#1F1F1F" stroke-width="1.5" stroke-linecap="round" stroke-linejoin="round"/>
<path fill-rule="evenodd" clip-rule="evenodd" d="M15.5911 18.0198C13.1691 18.0198 11.2051 16.0568 11.2051 13.6348C11.2051 11.2128 13.1691 9.24976 15.5911 9.24976C18.0121 9.24976 19.9761 11.2128 19.9761 13.6348C19.9851 16.0478 18.0351 18.0108 15.6221 18.0198H15.5911Z" stroke="#1F1F1F" stroke-width="1.5" stroke-linecap="round" stroke-linejoin="round"/>
<path d="M22.4844 16.8815C24.0854 16.6565 25.3184 15.2825 25.3214 13.6195C25.3214 11.9805 24.1264 10.6205 22.5594 10.3635" stroke="#1F1F1F" stroke-width="1.5" stroke-linecap="round" stroke-linejoin="round"/>
<path d="M24.5957 20.7322C26.1467 20.9632 27.2297 21.5072 27.2297 22.6272C27.2297 23.3982 26.7197 23.8982 25.8957 24.2112" stroke="#1F1F1F" stroke-width="1.5" stroke-linecap="round" stroke-linejoin="round"/>
</svg>
